<mxfile host="app.diagrams.net" modified="2023-08-06T15:02:17.746Z" agent="Mozilla/5.0 (Macintosh; Intel Mac OS X 10_15_7) AppleWebKit/537.36 (KHTML, like Gecko) Chrome/115.0.0.0 Safari/537.36" version="21.2.1" etag="GxAxYAFpgJEApcDDwbh5" type="github">
  <diagram name="Page-1" id="XqPYj9-Z0o4p-7petW7G">
    <mxGraphModel>
      <root>
        <mxCell id="0" />
        <mxCell id="1" parent="0" />
      </root>
    </mxGraphModel>
  </diagram>
</mxfile>
